<svg id="レイヤー_1" data-name="レイヤー 1" xmlns="http://www.w3.org/2000/svg" viewBox="0 0 50.75 50.75"><defs><style>.cls-1{stroke:#000;stroke-miterlimit:10;stroke-width:0.75px;}</style></defs><path class="cls-1" d="M139.53,125.28a6.31,6.31,0,0,0-2.45.5l-4.45-10.3a2.58,2.58,0,0,0,.68-1.77,2.35,2.35,0,0,0-2.24-2.45h-.26L122,90.93a.69.69,0,0,0-1-.38.82.82,0,0,0-.34,1L129.52,112a2.57,2.57,0,0,0-.68,1.76,2.35,2.35,0,0,0,2.23,2.46h.26l4.47,10.33a7.8,7.8,0,0,0-3.18,6.39c0,4.19,3.1,7.6,6.91,7.6s6.91-3.41,6.91-7.6S143.34,125.28,139.53,125.28Zm0,13.62a6,6,0,1,1,5.48-6A5.78,5.78,0,0,1,139.53,138.9Z" transform="translate(-96.07 -90.1)"/><path class="cls-1" d="M128.89,116.94l-3.82,8.84a6.31,6.31,0,0,0-2.45-.5c-3.82,0-6.92,3.41-6.92,7.6s3.1,7.6,6.92,7.6,6.91-3.41,6.91-7.6a7.8,7.8,0,0,0-3.18-6.39l3.83-8.87A3.72,3.72,0,0,1,128.89,116.94Zm-.8,15.94a5.5,5.5,0,1,1-5.47-6A5.78,5.78,0,0,1,128.09,132.88Z" transform="translate(-96.07 -90.1)"/><path class="cls-1" d="M141.42,91.6a.82.82,0,0,0-.34-1,.69.69,0,0,0-1,.38L132,109.81a3.72,3.72,0,0,1,1.29.68Z" transform="translate(-96.07 -90.1)"/><path class="cls-1" d="M106.74,90.48H97.16a.79.79,0,0,0,0,1.57h9.58a2,2,0,0,1,1.9,2.09V138a.9.9,0,0,1-.86.94h-2.2a.9.9,0,0,1-.85-.94V116.1a.76.76,0,0,0-.72-.79H97.16a.79.79,0,0,0,0,1.58h6.13V138a2.42,2.42,0,0,0,2.29,2.52h2.2a2.41,2.41,0,0,0,2.29-2.52V94.14A3.51,3.51,0,0,0,106.74,90.48Z" transform="translate(-96.07 -90.1)"/><path class="cls-1" d="M97.16,95.09h6.65a.79.79,0,0,0,0-1.57H97.16a.79.79,0,0,0,0,1.57Z" transform="translate(-96.07 -90.1)"/><path class="cls-1" d="M97.16,98.2h6.65a.79.79,0,0,0,0-1.58H97.16a.79.79,0,0,0,0,1.58Z" transform="translate(-96.07 -90.1)"/><path class="cls-1" d="M97.16,101.31h6.65a.79.79,0,0,0,0-1.58H97.16a.79.79,0,0,0,0,1.58Z" transform="translate(-96.07 -90.1)"/><path class="cls-1" d="M97.16,104.42h6.65a.79.79,0,0,0,0-1.58H97.16a.79.79,0,0,0,0,1.58Z" transform="translate(-96.07 -90.1)"/><path class="cls-1" d="M97.16,107.53h6.65a.79.79,0,0,0,0-1.58H97.16a.79.79,0,0,0,0,1.58Z" transform="translate(-96.07 -90.1)"/><path class="cls-1" d="M97.16,110.64h6.65a.79.79,0,0,0,0-1.58H97.16a.79.79,0,0,0,0,1.58Z" transform="translate(-96.07 -90.1)"/><path class="cls-1" d="M97.16,113.74h6.65a.79.79,0,0,0,0-1.57H97.16a.79.79,0,0,0,0,1.57Z" transform="translate(-96.07 -90.1)"/></svg>