<svg id="レイヤー_1" data-name="レイヤー 1" xmlns="http://www.w3.org/2000/svg" viewBox="0 0 40.62 58.57"><defs><style>.cls-1{font-size:12px;font-family:KozGoPr6N-Regular-83pv-RKSJ-H, Kozuka Gothic Pr6N;}.cls-1,.cls-2{fill:#231815;}.cls-1,.cls-3{stroke:#231815;stroke-miterlimit:10;}.cls-3{fill:none;stroke-width:4px;}</style></defs><text class="cls-1" transform="translate(6.92 54)">T o p</text><circle class="cls-2" cx="8.92" cy="19.38" r="3"/><circle class="cls-2" cx="15.19" cy="10.99" r="3"/><circle class="cls-2" cx="25.44" cy="10.99" r="3"/><circle class="cls-2" cx="31.81" cy="19.38" r="3"/><path class="cls-3" d="M108.92,99.51s17,0,18.16,16c0,0,1,8.37-8.32,11.26a5.42,5.42,0,0,1-1.55.21h-4a1.12,1.12,0,0,0-1,.9,1.05,1.05,0,0,0,.22.78s1,.67,1,3.1-1,4.48-5.5,4.52c-4.94,0-17.42-5.82-17.42-18.45S101.8,99.49,108.92,99.51Z" transform="translate(-88.49 -97.51)"/></svg>